
<svg width="68px" height="38px" viewBox="126 26 68 38" version="1.1" xmlns="http://www.w3.org/2000/svg" xmlns:xlink="http://www.w3.org/1999/xlink">
    <!-- Generator: Sketch 3.7.2 (28276) - http://www.bohemiancoding.com/sketch -->
    <desc>Created with Sketch.</desc>
    <defs></defs>
    <g id="Page-1" stroke="none" stroke-width="1" fill="none" fill-rule="evenodd" transform="translate(127.000000, 27.000000)" stroke-linecap="round" stroke-linejoin="round">
        <path d="M23.4299,14.7138 L28.4209,24.2148" id="Stroke-1" stroke="#4DEEAC" stroke-width="2"></path>
        <path d="M43.0453,14.7138 L38.1013,24.2168" id="Stroke-2" stroke="#4DEEAC" stroke-width="2"></path>
        <path d="M38.1013,24.2172 L31.2623,15.7142" id="Stroke-3" stroke="#4DEEAC" stroke-width="2"></path>
        <path d="M28.4213,24.215 L35.2623,15.714" id="Stroke-4" stroke="#4DEEAC" stroke-width="2"></path>
        <g id="Group-19" transform="translate(0.000000, 0.476100)" stroke-width="2">
            <path d="M37.1964,4.5364 C37.1964,6.7524 35.4004,8.5484 33.1844,8.5484 C30.9674,8.5484 29.1714,6.7524 29.1714,4.5364 C29.1714,2.3204 30.9674,0.5244 33.1844,0.5244 C35.4004,0.5244 37.1964,2.3204 37.1964,4.5364 L37.1964,4.5364 Z" id="Stroke-5" stroke="#4DEEAC"></path>
            <path d="M17.5903,13.0289 C16.5613,14.7949 16.0003,16.8199 16.0003,18.8899 C16.0003,21.5419 16.9263,24.1119 18.5603,26.1599" id="Stroke-7" stroke="#FFFFFF"></path>
            <path d="M11.5331,30.1052 C9.2681,26.8422 8.0001,22.9232 8.0001,18.8902 C8.0001,15.5752 8.8511,12.3302 10.4201,9.4622" id="Stroke-9" stroke="#FFFFFF"></path>
            <path d="M4.517,34 C1.615,29.548 0,24.292 0,18.89 C0,14.331 1.143,9.868 3.254,5.902" id="Stroke-11" stroke="#FFFFFF"></path>
            <path d="M47.9701,13.0289 C48.9991,14.7949 49.5601,16.8199 49.5601,18.8899 C49.5601,21.5419 48.6341,24.1119 47.0001,26.1599" id="Stroke-13" stroke="#FFFFFF"></path>
            <path d="M54.0273,30.1052 C56.2923,26.8422 57.5603,22.9232 57.5603,18.8902 C57.5603,15.5752 56.7093,12.3302 55.1403,9.4622" id="Stroke-15" stroke="#FFFFFF"></path>
            <path d="M61.0434,34 C63.9454,29.548 65.5604,24.292 65.5604,18.89 C65.5604,14.331 64.4174,9.868 62.3064,5.902" id="Stroke-17" stroke="#FFFFFF"></path>
        </g>
    </g>
</svg>
