<svg xmlns="http://www.w3.org/2000/svg" viewBox="-152 382.9 306.1 29.1" class="logo"><desc>Moogfest 2016</desc><path d="M-152 384.2h5.7v26.4h-5.7v-26.4zm10.4 0h5.8v26.4h-5.8v-26.4zm10.4 0h5.8v26.4h-5.8v-26.4zm31.8 26.9c-7.6 0-13.8-6.2-13.8-13.7 0-7.6 6.2-13.7 13.8-13.7 7.5 0 13.8 6.1 13.8 13.7 0 7.5-6.3 13.7-13.8 13.7m0-21.8c-4.5 0-8 3.6-8 8.1s3.5 8.1 8 8.1 8.1-3.7 8.1-8.1c0-4.5-3.6-8.1-8.1-8.1m74.6 21.8c-7.6 0-13.8-6.2-13.8-13.7 0-7.6 6.2-13.7 15.1-13.7v5.6c-4.8 0-7.8 2.2-8.9 5.4H-11v2.8c0 7.4-6.3 13.6-13.8 13.6m-7.6-10.9c1.1 3.2 4.1 5.4 7.6 5.4s6.4-2.2 7.6-5.4h-15.2zm39.3-10.5v4.9h10.5v5.6H6.9v10.4H1.2v-10.4h-4.5v-5.6h4.5v-10.4h20.7v5.5h-15zm25.3-5.5h20.4v5.5H32.2v-5.5zm0 10.4h20.4v5.5H32.2v-5.5zm0 10.5h20.4v5.5H32.2v-5.5zm35.3 6.9l-2.3-5.1c2.8-1.2 3.8-1.9 3.8-3.6 0-.7-.1-1.4-.5-2.1l-2.5-5.4c-.7-1.3-1-2.7-1-4.1 0-4 2.1-6.6 7.1-8.9l2.3 5c-2.8 1.3-3.8 2-3.8 3.7 0 .6.1 1.3.4 1.9l2.5 5.5c.6 1.3 1 2.8 1 4.3 0 4-2.1 6.5-7 8.8m33.4-12.4v11.5h-5.7v-11.5h-10v-5.5h10v-10.4h5.7v10.4h10v5.5h-10zm32.5-11.6l-1.5-1.2c1-1.3 1.9-2 3.7-2 2.1 0 3.4 1.2 3.4 3.1 0 1.7-.8 2.5-2.6 3.8l-1.6 1.2h4.3v1.9h-7.3v-1.7l3.3-2.7c1.2-1 1.7-1.6 1.7-2.4 0-.8-.6-1.3-1.3-1.3-.8 0-1.3.4-2.1 1.3m16.3 6.9c-2.6 0-4.4-2.2-4.4-5.1s1.8-5.1 4.4-5.1 4.4 2.2 4.4 5.1-1.8 5.1-4.4 5.1m0-8.2c-1.3 0-2.1 1.3-2.1 3.1s.9 3.2 2.2 3.2c1.3 0 2.1-1.3 2.1-3.1-.1-1.9-.9-3.2-2.2-3.2M136.1 400h1.5v9.9h-2.1v-7.7l-1.8.4-.4-1.8 2.8-.8zm16 2.6c-.7-.5-1.2-.8-2-.8-1.2 0-1.9 1-2 2.3.5-.3 1.1-.6 2-.6 2 0 3.5 1.1 3.5 3.2 0 2-1.6 3.4-3.8 3.4-1.3 0-2.2-.4-2.9-1.1-.7-.7-1.2-1.8-1.2-3.8 0-3.1 1.4-5.4 4.3-5.4 1.3 0 2.2.4 3.1 1.1l-1 1.7zm-2.4 2.7c-1.1 0-1.7.6-1.7 1.4 0 .9.7 1.5 1.7 1.5 1.1 0 1.7-.6 1.7-1.5 0-.8-.6-1.4-1.7-1.4m-209-21.3v7.1l-6.6 3.2v4.1l6.6-3.2v.7l-6.6 3.5v4.1l9-4.8v-7.5c.6.5 1.1 1 1.5 1.7.4.6.8 1.4 1 2.1.2.8.4 1.6.4 2.4 0 1.1-.2 2.2-.6 3.2-.6 1.5-1.6 2.7-2.9 3.6-.6.4-1.4.8-2.1 1-.8.2-1.6.4-2.4.4-1.1 0-2.2-.2-3.2-.6-1.5-.6-2.7-1.6-3.6-2.9-.4-.6-.8-1.4-1-2.1-.2-.8-.4-1.6-.4-2.4 0-1.1.2-2.2.6-3.2.6-1.5 1.7-2.7 2.9-3.6.6-.4 1.4-.8 2.1-1 .8-.2 1.6-.4 2.4-.4.5 0 1 .1 1.5.2v-5.8c-.5-.1-1-.1-1.5-.1-7.6 0-13.8 6.1-13.8 13.7 0 7.5 6.2 13.7 13.8 13.7 7.5 0 13.8-6.2 13.8-13.7.1-6.6-4.7-12.1-10.9-13.4"></path></svg>
