
<svg width="68px" height="33px" viewBox="118 30 68 33" version="1.1" xmlns="http://www.w3.org/2000/svg" xmlns:xlink="http://www.w3.org/1999/xlink">
    <!-- Generator: Sketch 3.7.2 (28276) - http://www.bohemiancoding.com/sketch -->
    <desc>Created with Sketch.</desc>
    <defs></defs>
    <g id="Page-1" stroke="none" stroke-width="1" fill="none" fill-rule="evenodd" transform="translate(119.000000, 31.000000)" stroke-linecap="round" stroke-linejoin="round">
        <g id="Group-19" transform="translate(0.000000, 0.476100)" stroke="#FFFFFF" stroke-width="2">
            <path d="M17.5903,8.0289 C16.5613,9.7949 16.0003,11.8199 16.0003,13.8899 C16.0003,16.5419 16.9263,19.1119 18.5603,21.1599" id="Stroke-7"></path>
            <path d="M11.5331,25.1052 C9.2681,21.8422 8.0001,17.9232 8.0001,13.8902 C8.0001,10.5752 8.8511,7.3302 10.4201,4.4622" id="Stroke-9"></path>
            <path d="M4.517,29 C1.615,24.548 0,19.292 0,13.89 C0,9.331 1.143,4.868 3.254,0.902" id="Stroke-11"></path>
            <path d="M47.9701,8.0289 C48.9991,9.7949 49.5601,11.8199 49.5601,13.8899 C49.5601,16.5419 48.6341,19.1119 47.0001,21.1599" id="Stroke-13"></path>
            <path d="M54.0273,25.1052 C56.2923,21.8422 57.5603,17.9232 57.5603,13.8902 C57.5603,10.5752 56.7093,7.3302 55.1403,4.4622" id="Stroke-15"></path>
            <path d="M61.0434,29 C63.9454,24.548 65.5604,19.292 65.5604,13.89 C65.5604,9.331 64.4174,4.868 62.3064,0.902" id="Stroke-17"></path>
        </g>
    </g>
</svg>
